<svg xmlns="http://www.w3.org/2000/svg" xmlns:xlink="http://www.w3.org/1999/xlink" width="500" zoomAndPan="magnify" viewBox="0 0 375 374.999991" height="500" preserveAspectRatio="xMidYMid meet" version="1.2"><defs><clipPath id="d241f30b00"><path d="M 31 136.351562 L 98.808594 136.351562 L 98.808594 192 L 31 192 Z M 31 136.351562 "/></clipPath><clipPath id="c9f67b5bc6"><path d="M 26.058594 204 L 51 204 L 51 221 L 26.058594 221 Z M 26.058594 204 "/></clipPath><clipPath id="2a3a1c30ed"><path d="M 47 207 L 75 207 L 75 224.101562 L 47 224.101562 Z M 47 207 "/></clipPath></defs><g id="2e36f42c7e"><rect x="0" width="375" y="0" height="374.999991" style="fill:#ffffff;fill-opacity:1;stroke:none;"/><rect x="0" width="375" y="0" height="374.999991" style="fill:#014152;fill-opacity:1;stroke:none;"/><path style=" stroke:none;fill-rule:nonzero;fill:#ffd7a9;fill-opacity:1;" d="M 88.042969 185.84375 C 89.769531 182.109375 90.726562 177.949219 90.726562 173.585938 C 90.726562 167.316406 88.761719 161.515625 85.40625 156.746094 L 82.953125 159.199219 C 85.71875 163.332031 87.324219 168.273438 87.324219 173.585938 C 87.324219 177.550781 86.429688 181.335938 84.824219 184.699219 C 85.960938 184.894531 87.058594 185.300781 88.042969 185.84375 Z M 88.042969 185.84375 "/><path style=" stroke:none;fill-rule:nonzero;fill:#ffd7a9;fill-opacity:1;" d="M 66.011719 189.210938 C 67.238281 189.808594 68.34375 190.628906 69.265625 191.636719 C 76.203125 188.582031 81.0625 181.648438 81.0625 173.585938 C 81.0625 169.988281 80.09375 166.625 78.414062 163.738281 L 75.898438 166.253906 C 77.023438 168.460938 77.648438 170.949219 77.648438 173.585938 C 77.648438 180.945312 72.734375 187.199219 66.011719 189.210938 Z M 66.011719 189.210938 "/><g clip-rule="nonzero" clip-path="url(#d241f30b00)"><path style=" stroke:none;fill-rule:nonzero;fill:#ffd7a9;fill-opacity:1;" d="M 98.375 143.085938 C 98.214844 142.496094 97.746094 142.027344 97.15625 141.878906 L 93.890625 141.011719 L 93.023438 137.738281 C 92.867188 137.148438 92.40625 136.675781 91.816406 136.519531 C 91.226562 136.363281 90.589844 136.53125 90.164062 136.964844 L 83.875 143.253906 C 83.441406 143.6875 83.277344 144.3125 83.433594 144.894531 L 84.300781 148.179688 L 80.867188 151.609375 C 75.667969 146.980469 68.824219 144.15625 61.324219 144.15625 C 45.101562 144.15625 31.914062 157.355469 31.914062 173.570312 C 31.914062 177.902344 32.855469 182.035156 34.5625 185.742188 C 35.566406 185.207031 36.65625 184.828125 37.796875 184.652344 C 36.203125 181.296875 35.316406 177.535156 35.316406 173.578125 C 35.316406 159.246094 46.976562 147.578125 61.316406 147.578125 C 67.863281 147.578125 73.859375 150.023438 78.433594 154.035156 L 74.007812 158.488281 C 70.574219 155.59375 66.148438 153.851562 61.324219 153.851562 C 50.441406 153.851562 41.589844 162.695312 41.589844 173.585938 C 41.589844 181.59375 46.375 188.5 53.246094 191.570312 C 54.167969 190.585938 55.265625 189.773438 56.5 189.183594 C 49.851562 187.125 45 180.910156 45 173.585938 C 45 164.585938 52.316406 157.261719 61.324219 157.261719 C 65.21875 157.261719 68.785156 158.628906 71.582031 160.90625 L 67.109375 165.386719 C 65.464844 164.214844 63.484375 163.535156 61.316406 163.535156 C 55.765625 163.535156 51.253906 168.035156 51.253906 173.585938 C 51.253906 179.140625 55.773438 183.640625 61.316406 183.640625 C 66.859375 183.640625 71.367188 179.140625 71.367188 173.585938 C 71.367188 172.71875 71.257812 171.878906 71.046875 171.085938 L 67.917969 174.214844 C 67.617188 177.582031 64.765625 180.226562 61.308594 180.226562 C 57.644531 180.226562 54.65625 177.25 54.65625 173.585938 C 54.65625 169.925781 57.644531 166.945312 61.308594 166.945312 C 62.523438 166.945312 63.648438 167.277344 64.628906 167.839844 L 60.097656 172.378906 C 59.425781 173.042969 59.425781 174.121094 60.097656 174.785156 C 60.429688 175.117188 60.863281 175.285156 61.308594 175.285156 C 61.742188 175.285156 62.183594 175.109375 62.515625 174.785156 L 86.699219 150.59375 L 89.980469 151.46875 C 90.128906 151.507812 90.277344 151.527344 90.414062 151.527344 C 90.867188 151.527344 91.300781 151.339844 91.621094 151.027344 L 97.914062 144.738281 C 98.355469 144.304688 98.53125 143.675781 98.375 143.085938 Z M 98.375 143.085938 "/></g><g clip-rule="nonzero" clip-path="url(#c9f67b5bc6)"><path style=" stroke:none;fill-rule:nonzero;fill:#ffd7a9;fill-opacity:1;" d="M 50.210938 207.074219 C 49.152344 205.867188 47.785156 204.925781 46.253906 204.382812 L 46.164062 204.363281 C 44.328125 205.710938 42.078125 206.503906 39.632812 206.503906 C 37.1875 206.503906 34.9375 205.710938 33.113281 204.363281 L 33.019531 204.382812 C 29.71875 205.570312 27.230469 208.542969 26.796875 212.203125 L 26.160156 218.429688 C 26.058594 219.515625 26.90625 220.476562 28.003906 220.476562 L 44.925781 220.476562 L 45.445312 215.46875 C 45.839844 212.074219 47.59375 209.078125 50.210938 207.074219 Z M 50.210938 207.074219 "/></g><path style=" stroke:none;fill-rule:nonzero;fill:#ffd7a9;fill-opacity:1;" d="M 39.632812 203.542969 C 44.070312 203.542969 47.675781 199.945312 47.675781 195.5 C 47.675781 191.0625 44.070312 187.457031 39.632812 187.457031 C 35.195312 187.457031 31.589844 191.0625 31.589844 195.5 C 31.601562 199.945312 35.195312 203.542969 39.632812 203.542969 Z M 39.632812 203.542969 "/><path style=" stroke:none;fill-rule:nonzero;fill:#ffd7a9;fill-opacity:1;" d="M 89.410156 204.382812 L 89.316406 204.363281 C 87.480469 205.710938 85.230469 206.503906 82.796875 206.503906 C 80.359375 206.503906 78.109375 205.710938 76.277344 204.363281 L 76.183594 204.382812 C 74.644531 204.925781 73.289062 205.875 72.234375 207.09375 C 74.863281 209.105469 76.609375 212.109375 77.011719 215.558594 L 77.503906 220.484375 L 94.417969 220.484375 C 95.523438 220.484375 96.371094 219.527344 96.261719 218.445312 L 95.644531 212.238281 C 95.21875 208.542969 92.730469 205.570312 89.410156 204.382812 Z M 89.410156 204.382812 "/><path style=" stroke:none;fill-rule:nonzero;fill:#ffd7a9;fill-opacity:1;" d="M 74.753906 195.5 C 74.753906 199.945312 78.351562 203.542969 82.796875 203.542969 C 87.242188 203.542969 90.839844 199.945312 90.839844 195.5 C 90.839844 191.0625 87.230469 187.457031 82.796875 187.457031 C 78.351562 187.457031 74.753906 191.0625 74.753906 195.5 Z M 74.753906 195.5 "/><g clip-rule="nonzero" clip-path="url(#2a3a1c30ed)"><path style=" stroke:none;fill-rule:nonzero;fill:#ffd7a9;fill-opacity:1;" d="M 67.828125 207.996094 L 67.734375 207.980469 C 65.917969 209.324219 63.667969 210.117188 61.214844 210.117188 C 58.769531 210.117188 56.519531 209.324219 54.695312 207.96875 L 54.59375 208.007812 C 51.289062 209.195312 48.800781 212.164062 48.367188 215.828125 L 47.730469 222.054688 C 47.628906 223.140625 48.476562 224.089844 49.574219 224.089844 L 72.835938 224.089844 C 73.941406 224.089844 74.789062 223.148438 74.679688 222.054688 L 74.0625 215.855469 C 73.648438 212.164062 71.148438 209.195312 67.828125 207.996094 Z M 67.828125 207.996094 "/></g><path style=" stroke:none;fill-rule:nonzero;fill:#ffd7a9;fill-opacity:1;" d="M 53.183594 199.117188 C 53.183594 203.5625 56.777344 207.15625 61.222656 207.15625 C 65.660156 207.15625 69.265625 203.5625 69.265625 199.117188 C 69.265625 194.679688 65.660156 191.074219 61.222656 191.074219 C 56.777344 191.074219 53.183594 194.679688 53.183594 199.117188 Z M 53.183594 199.117188 "/><g style="fill:#ffffff;fill-opacity:1;"><g transform="translate(114.990129, 150.318492)"><path style="stroke:none" d="M 0.765625 -0.140625 C 1.015625 -0.140625 1.222656 -0.222656 1.390625 -0.390625 C 1.566406 -0.566406 1.660156 -0.773438 1.671875 -1.015625 L 1.671875 -8.78125 C 1.660156 -9.019531 1.566406 -9.222656 1.390625 -9.390625 C 1.222656 -9.566406 1.015625 -9.65625 0.765625 -9.65625 L 0.59375 -9.65625 L 0.59375 -9.796875 L 4.84375 -9.796875 L 4.828125 -9.65625 L 4.65625 -9.65625 C 4.414062 -9.65625 4.207031 -9.566406 4.03125 -9.390625 C 3.851562 -9.222656 3.765625 -9.019531 3.765625 -8.78125 L 3.765625 -0.609375 L 5.59375 -0.609375 C 6.28125 -0.609375 6.851562 -0.800781 7.3125 -1.1875 C 7.78125 -1.582031 8.125 -2.140625 8.34375 -2.859375 L 8.484375 -2.859375 L 7.84375 0 L 0.59375 0 L 0.59375 -0.140625 Z M 0.765625 -0.140625 "/></g></g><g style="fill:#ffffff;fill-opacity:1;"><g transform="translate(127.333314, 150.318492)"><path style="stroke:none" d="M 9.328125 -0.140625 L 9.4375 -0.140625 L 9.4375 0 L 5.328125 0 L 5.328125 -0.140625 L 5.4375 -0.140625 C 5.625 -0.140625 5.757812 -0.191406 5.84375 -0.296875 C 5.925781 -0.410156 5.96875 -0.515625 5.96875 -0.609375 C 5.96875 -0.703125 5.945312 -0.800781 5.90625 -0.90625 L 5.359375 -2.203125 L 2.390625 -2.203125 L 1.828125 -0.890625 C 1.796875 -0.796875 1.78125 -0.703125 1.78125 -0.609375 C 1.78125 -0.515625 1.820312 -0.410156 1.90625 -0.296875 C 2 -0.191406 2.140625 -0.140625 2.328125 -0.140625 L 2.4375 -0.140625 L 2.4375 0 L -0.359375 0 L -0.359375 -0.140625 L -0.25 -0.140625 C -0.0507812 -0.140625 0.140625 -0.195312 0.328125 -0.3125 C 0.523438 -0.4375 0.6875 -0.625 0.8125 -0.875 L 3.71875 -7.078125 C 4.125 -8.003906 4.335938 -8.578125 4.359375 -8.796875 L 4.484375 -8.796875 L 8.234375 -0.921875 C 8.359375 -0.648438 8.519531 -0.453125 8.71875 -0.328125 C 8.914062 -0.203125 9.117188 -0.140625 9.328125 -0.140625 Z M 2.640625 -2.75 L 5.125 -2.75 L 3.890625 -5.671875 Z M 2.640625 -2.75 "/></g></g><g style="fill:#ffffff;fill-opacity:1;"><g transform="translate(140.068287, 150.318492)"><path style="stroke:none" d="M 0.484375 0 L 0.484375 -0.109375 L 5.09375 -7.859375 L 2.09375 -7.859375 C 1.695312 -7.847656 1.382812 -7.722656 1.15625 -7.484375 C 0.9375 -7.253906 0.828125 -6.9375 0.828125 -6.53125 L 0.828125 -6.40625 L 0.6875 -6.40625 L 0.6875 -8.625 C 0.800781 -8.570312 1.015625 -8.519531 1.328125 -8.46875 C 1.648438 -8.425781 1.945312 -8.40625 2.21875 -8.40625 L 6.328125 -8.40625 C 6.597656 -8.40625 6.882812 -8.425781 7.1875 -8.46875 C 7.488281 -8.507812 7.679688 -8.546875 7.765625 -8.578125 L 7.765625 -8.46875 L 3.21875 -0.546875 L 5.640625 -0.546875 C 6.878906 -0.566406 7.710938 -1.242188 8.140625 -2.578125 L 8.296875 -2.578125 L 7.6875 0 Z M 0.484375 0 "/></g></g><g style="fill:#ffffff;fill-opacity:1;"><g transform="translate(152.271556, 150.318492)"><path style="stroke:none" d="M 7.0625 0 L 0.46875 0 L 0.46875 -0.140625 L 0.640625 -0.140625 C 0.859375 -0.140625 1.039062 -0.207031 1.1875 -0.34375 C 1.332031 -0.488281 1.40625 -0.664062 1.40625 -0.875 L 1.40625 -7.53125 C 1.40625 -7.738281 1.332031 -7.910156 1.1875 -8.046875 C 1.039062 -8.191406 0.859375 -8.265625 0.640625 -8.265625 L 0.46875 -8.265625 L 0.46875 -8.40625 L 5.40625 -8.40625 C 5.65625 -8.40625 5.925781 -8.425781 6.21875 -8.46875 C 6.519531 -8.519531 6.734375 -8.566406 6.859375 -8.609375 L 6.859375 -6.390625 L 6.71875 -6.390625 L 6.71875 -6.515625 C 6.71875 -6.921875 6.601562 -7.238281 6.375 -7.46875 C 6.15625 -7.707031 5.847656 -7.832031 5.453125 -7.84375 L 3.4375 -7.84375 L 3.4375 -4.4375 L 5.03125 -4.4375 C 5.34375 -4.445312 5.597656 -4.550781 5.796875 -4.75 C 5.992188 -4.957031 6.09375 -5.222656 6.09375 -5.546875 L 6.09375 -5.640625 L 6.234375 -5.640625 L 6.234375 -2.671875 L 6.09375 -2.671875 L 6.09375 -2.765625 C 6.09375 -3.210938 5.925781 -3.53125 5.59375 -3.71875 C 5.425781 -3.820312 5.242188 -3.875 5.046875 -3.875 L 3.4375 -3.875 L 3.4375 -0.5625 L 5.109375 -0.5625 C 5.691406 -0.570312 6.1875 -0.75 6.59375 -1.09375 C 7 -1.445312 7.289062 -1.941406 7.46875 -2.578125 L 7.609375 -2.578125 Z M 7.0625 0 "/></g></g><g style="fill:#ffffff;fill-opacity:1;"><g transform="translate(163.873152, 150.318492)"><path style="stroke:none" d="M 6.6875 -8.40625 L 10.625 -8.40625 L 10.625 -8.265625 L 10.390625 -8.265625 C 10.171875 -8.265625 9.988281 -8.195312 9.84375 -8.0625 C 9.695312 -7.9375 9.625 -7.769531 9.625 -7.5625 L 9.625 -1.4375 C 9.625 -0.863281 9.660156 -0.390625 9.734375 -0.015625 L 9.765625 0.1875 L 9.625 0.1875 L 3.203125 -5.484375 L 3.203125 -0.859375 C 3.210938 -0.648438 3.289062 -0.476562 3.4375 -0.34375 C 3.582031 -0.207031 3.757812 -0.140625 3.96875 -0.140625 L 4.21875 -0.140625 L 4.21875 0 L 0.296875 0 L 0.296875 -0.140625 L 0.515625 -0.140625 C 0.734375 -0.140625 0.914062 -0.207031 1.0625 -0.34375 C 1.207031 -0.476562 1.28125 -0.648438 1.28125 -0.859375 L 1.28125 -7.015625 C 1.28125 -7.578125 1.242188 -8.039062 1.171875 -8.40625 L 1.140625 -8.59375 L 1.28125 -8.578125 L 7.6875 -2.9375 L 7.6875 -7.546875 C 7.6875 -7.753906 7.613281 -7.925781 7.46875 -8.0625 C 7.320312 -8.195312 7.144531 -8.265625 6.9375 -8.265625 L 6.6875 -8.265625 Z M 6.6875 -8.40625 "/></g></g><g style="fill:#ffffff;fill-opacity:1;"><g transform="translate(178.497063, 150.318492)"><path style="stroke:none" d="M 0.484375 -4.203125 C 0.484375 -5.546875 0.929688 -6.609375 1.828125 -7.390625 C 2.734375 -8.179688 3.9375 -8.578125 5.4375 -8.578125 C 6.9375 -8.578125 8.140625 -8.179688 9.046875 -7.390625 C 9.953125 -6.609375 10.40625 -5.546875 10.40625 -4.203125 C 10.40625 -2.859375 9.953125 -1.789062 9.046875 -1 C 8.140625 -0.207031 6.9375 0.1875 5.4375 0.1875 C 3.945312 0.1875 2.75 -0.207031 1.84375 -1 C 0.9375 -1.789062 0.484375 -2.859375 0.484375 -4.203125 Z M 2.625 -4.203125 C 2.625 -3.023438 2.878906 -2.09375 3.390625 -1.40625 C 3.898438 -0.71875 4.582031 -0.375 5.4375 -0.375 C 6.289062 -0.375 6.972656 -0.71875 7.484375 -1.40625 C 7.992188 -2.09375 8.25 -3.023438 8.25 -4.203125 C 8.25 -5.378906 7.992188 -6.304688 7.484375 -6.984375 C 6.972656 -7.671875 6.289062 -8.015625 5.4375 -8.015625 C 4.582031 -8.015625 3.898438 -7.671875 3.390625 -6.984375 C 2.878906 -6.304688 2.625 -5.378906 2.625 -4.203125 Z M 2.625 -4.203125 "/></g></g><g style="fill:#ffffff;fill-opacity:1;"><g transform="translate(193.092995, 150.318492)"><path style="stroke:none" d=""/></g></g><g style="fill:#ffffff;fill-opacity:1;"><g transform="translate(200.31504, 150.318492)"><path style="stroke:none" d="M 5.515625 0.1875 C 3.941406 0.175781 2.707031 -0.210938 1.8125 -0.984375 C 0.914062 -1.753906 0.46875 -2.828125 0.46875 -4.203125 C 0.46875 -5.578125 0.914062 -6.648438 1.8125 -7.421875 C 2.707031 -8.191406 3.941406 -8.578125 5.515625 -8.578125 C 6.742188 -8.578125 7.796875 -8.363281 8.671875 -7.9375 L 8.671875 -5.71875 L 8.5625 -5.71875 C 8.332031 -6.539062 7.972656 -7.128906 7.484375 -7.484375 C 7.003906 -7.835938 6.394531 -8.015625 5.65625 -8.015625 C 4.664062 -8.015625 3.910156 -7.675781 3.390625 -7 C 2.867188 -6.320312 2.609375 -5.398438 2.609375 -4.234375 C 2.609375 -3.066406 2.863281 -2.132812 3.375 -1.4375 C 3.90625 -0.726562 4.628906 -0.375 5.546875 -0.375 C 6.203125 -0.375 6.742188 -0.476562 7.171875 -0.6875 C 7.609375 -0.894531 7.953125 -1.222656 8.203125 -1.671875 C 8.453125 -2.128906 8.640625 -2.742188 8.765625 -3.515625 L 8.859375 -3.515625 L 9.03125 -1.40625 C 8.738281 -0.925781 8.296875 -0.539062 7.703125 -0.25 C 7.109375 0.0390625 6.378906 0.1875 5.515625 0.1875 Z M 5.515625 0.1875 "/></g></g><g style="fill:#ffffff;fill-opacity:1;"><g transform="translate(213.581717, 150.318492)"><path style="stroke:none" d="M 0.484375 -4.203125 C 0.484375 -5.546875 0.929688 -6.609375 1.828125 -7.390625 C 2.734375 -8.179688 3.9375 -8.578125 5.4375 -8.578125 C 6.9375 -8.578125 8.140625 -8.179688 9.046875 -7.390625 C 9.953125 -6.609375 10.40625 -5.546875 10.40625 -4.203125 C 10.40625 -2.859375 9.953125 -1.789062 9.046875 -1 C 8.140625 -0.207031 6.9375 0.1875 5.4375 0.1875 C 3.945312 0.1875 2.75 -0.207031 1.84375 -1 C 0.9375 -1.789062 0.484375 -2.859375 0.484375 -4.203125 Z M 2.625 -4.203125 C 2.625 -3.023438 2.878906 -2.09375 3.390625 -1.40625 C 3.898438 -0.71875 4.582031 -0.375 5.4375 -0.375 C 6.289062 -0.375 6.972656 -0.71875 7.484375 -1.40625 C 7.992188 -2.09375 8.25 -3.023438 8.25 -4.203125 C 8.25 -5.378906 7.992188 -6.304688 7.484375 -6.984375 C 6.972656 -7.671875 6.289062 -8.015625 5.4375 -8.015625 C 4.582031 -8.015625 3.898438 -7.671875 3.390625 -6.984375 C 2.878906 -6.304688 2.625 -5.378906 2.625 -4.203125 Z M 2.625 -4.203125 "/></g></g><g style="fill:#ffffff;fill-opacity:1;"><g transform="translate(228.177648, 150.318492)"><path style="stroke:none" d="M 6.6875 -8.40625 L 10.625 -8.40625 L 10.625 -8.265625 L 10.390625 -8.265625 C 10.171875 -8.265625 9.988281 -8.195312 9.84375 -8.0625 C 9.695312 -7.9375 9.625 -7.769531 9.625 -7.5625 L 9.625 -1.4375 C 9.625 -0.863281 9.660156 -0.390625 9.734375 -0.015625 L 9.765625 0.1875 L 9.625 0.1875 L 3.203125 -5.484375 L 3.203125 -0.859375 C 3.210938 -0.648438 3.289062 -0.476562 3.4375 -0.34375 C 3.582031 -0.207031 3.757812 -0.140625 3.96875 -0.140625 L 4.21875 -0.140625 L 4.21875 0 L 0.296875 0 L 0.296875 -0.140625 L 0.515625 -0.140625 C 0.734375 -0.140625 0.914062 -0.207031 1.0625 -0.34375 C 1.207031 -0.476562 1.28125 -0.648438 1.28125 -0.859375 L 1.28125 -7.015625 C 1.28125 -7.578125 1.242188 -8.039062 1.171875 -8.40625 L 1.140625 -8.59375 L 1.28125 -8.578125 L 7.6875 -2.9375 L 7.6875 -7.546875 C 7.6875 -7.753906 7.613281 -7.925781 7.46875 -8.0625 C 7.320312 -8.195312 7.144531 -8.265625 6.9375 -8.265625 L 6.6875 -8.265625 Z M 6.6875 -8.40625 "/></g></g><g style="fill:#ffffff;fill-opacity:1;"><g transform="translate(242.80156, 150.318492)"><path style="stroke:none" d="M 0.640625 -1.140625 C 0.640625 -1.753906 0.773438 -2.273438 1.046875 -2.703125 L 1.15625 -2.703125 C 1.144531 -2.640625 1.140625 -2.578125 1.140625 -2.515625 C 1.140625 -1.953125 1.34375 -1.453125 1.75 -1.015625 C 2.15625 -0.585938 2.722656 -0.375 3.453125 -0.375 C 3.972656 -0.375 4.375 -0.492188 4.65625 -0.734375 C 4.945312 -0.984375 5.09375 -1.253906 5.09375 -1.546875 C 5.09375 -1.847656 5.007812 -2.085938 4.84375 -2.265625 C 4.6875 -2.453125 4.421875 -2.664062 4.046875 -2.90625 L 2.0625 -4.171875 C 1.21875 -4.691406 0.796875 -5.363281 0.796875 -6.1875 C 0.796875 -6.269531 0.800781 -6.359375 0.8125 -6.453125 C 0.863281 -7.117188 1.117188 -7.640625 1.578125 -8.015625 C 2.035156 -8.390625 2.570312 -8.578125 3.1875 -8.578125 C 3.8125 -8.578125 4.472656 -8.535156 5.171875 -8.453125 L 5.921875 -8.453125 L 5.71875 -6.609375 L 5.59375 -6.609375 C 5.59375 -7.046875 5.441406 -7.390625 5.140625 -7.640625 C 4.835938 -7.890625 4.4375 -8.015625 3.9375 -8.015625 C 3.4375 -8.015625 3.039062 -7.910156 2.75 -7.703125 C 2.46875 -7.492188 2.328125 -7.21875 2.328125 -6.875 C 2.328125 -6.59375 2.46875 -6.347656 2.75 -6.140625 C 2.851562 -6.054688 3.015625 -5.953125 3.234375 -5.828125 L 5.453125 -4.453125 C 6.222656 -3.984375 6.609375 -3.335938 6.609375 -2.515625 C 6.609375 -1.648438 6.300781 -0.984375 5.6875 -0.515625 C 5.082031 -0.046875 4.289062 0.1875 3.3125 0.1875 C 2.71875 0.1875 2.191406 0.117188 1.734375 -0.015625 C 1.273438 -0.160156 0.941406 -0.34375 0.734375 -0.5625 C 0.671875 -0.726562 0.640625 -0.921875 0.640625 -1.140625 Z M 0.640625 -1.140625 "/></g></g><g style="fill:#ffffff;fill-opacity:1;"><g transform="translate(253.71754, 150.318492)"><path style="stroke:none" d="M 9.59375 -8.265625 L 9.390625 -8.265625 C 9.210938 -8.265625 9.0625 -8.207031 8.9375 -8.09375 C 8.820312 -7.988281 8.757812 -7.851562 8.75 -7.6875 L 8.75 -3.046875 C 8.75 -2.046875 8.441406 -1.253906 7.828125 -0.671875 C 7.210938 -0.0976562 6.296875 0.1875 5.078125 0.1875 C 3.859375 0.1875 2.910156 -0.09375 2.234375 -0.65625 C 1.554688 -1.21875 1.21875 -2.007812 1.21875 -3.03125 L 1.21875 -7.671875 C 1.21875 -7.835938 1.15625 -7.976562 1.03125 -8.09375 C 0.90625 -8.207031 0.753906 -8.265625 0.578125 -8.265625 L 0.375 -8.265625 L 0.375 -8.40625 L 4.0625 -8.40625 L 4.0625 -8.265625 L 3.859375 -8.265625 C 3.679688 -8.265625 3.53125 -8.207031 3.40625 -8.09375 C 3.289062 -7.976562 3.234375 -7.835938 3.234375 -7.671875 L 3.234375 -3.125 C 3.234375 -2.257812 3.429688 -1.582031 3.828125 -1.09375 C 4.222656 -0.613281 4.78125 -0.375 5.5 -0.375 C 6.21875 -0.375 6.785156 -0.601562 7.203125 -1.0625 C 7.617188 -1.519531 7.828125 -2.15625 7.828125 -2.96875 L 7.828125 -7.671875 C 7.816406 -7.847656 7.75 -7.988281 7.625 -8.09375 C 7.507812 -8.207031 7.363281 -8.265625 7.1875 -8.265625 L 7 -8.265625 L 7 -8.40625 L 9.59375 -8.40625 Z M 9.59375 -8.265625 "/></g></g><g style="fill:#ffffff;fill-opacity:1;"><g transform="translate(267.292041, 150.318492)"><path style="stroke:none" d="M 0.46875 0 L 0.46875 -0.140625 L 0.640625 -0.140625 C 0.859375 -0.140625 1.039062 -0.207031 1.1875 -0.34375 C 1.332031 -0.488281 1.40625 -0.664062 1.40625 -0.875 L 1.40625 -7.515625 C 1.40625 -7.722656 1.328125 -7.898438 1.171875 -8.046875 C 1.023438 -8.191406 0.847656 -8.265625 0.640625 -8.265625 L 0.46875 -8.265625 L 0.46875 -8.40625 L 4.375 -8.40625 L 4.375 -8.265625 L 4.203125 -8.265625 C 3.984375 -8.265625 3.800781 -8.191406 3.65625 -8.046875 C 3.507812 -7.910156 3.4375 -7.734375 3.4375 -7.515625 L 3.4375 -0.5625 L 5.109375 -0.5625 C 5.691406 -0.570312 6.179688 -0.75 6.578125 -1.09375 C 6.984375 -1.445312 7.28125 -1.941406 7.46875 -2.578125 L 7.609375 -2.578125 L 7.0625 0 Z M 0.46875 0 "/></g></g><g style="fill:#ffffff;fill-opacity:1;"><g transform="translate(278.683764, 150.318492)"><path style="stroke:none" d="M 8.109375 -6.40625 L 8.109375 -6.53125 C 8.109375 -6.9375 7.992188 -7.253906 7.765625 -7.484375 C 7.546875 -7.722656 7.234375 -7.847656 6.828125 -7.859375 L 5.203125 -7.859375 L 5.203125 -0.875 C 5.210938 -0.664062 5.289062 -0.488281 5.4375 -0.34375 C 5.59375 -0.207031 5.773438 -0.140625 5.984375 -0.140625 L 6.125 -0.140625 L 6.125 0 L 2.265625 0 L 2.265625 -0.140625 L 2.40625 -0.140625 C 2.625 -0.140625 2.804688 -0.207031 2.953125 -0.34375 C 3.097656 -0.488281 3.171875 -0.664062 3.171875 -0.875 L 3.171875 -7.859375 L 1.5625 -7.859375 C 1.15625 -7.847656 0.835938 -7.722656 0.609375 -7.484375 C 0.390625 -7.253906 0.28125 -6.9375 0.28125 -6.53125 L 0.28125 -6.40625 L 0.140625 -6.40625 L 0.140625 -8.625 C 0.273438 -8.570312 0.492188 -8.519531 0.796875 -8.46875 C 1.097656 -8.425781 1.367188 -8.40625 1.609375 -8.40625 L 6.78125 -8.40625 C 7.1875 -8.40625 7.519531 -8.4375 7.78125 -8.5 C 8.050781 -8.5625 8.207031 -8.601562 8.25 -8.625 L 8.25 -6.40625 Z M 8.109375 -6.40625 "/></g></g><g style="fill:#ffffff;fill-opacity:1;"><g transform="translate(290.789083, 150.318492)"><path style="stroke:none" d="M 9.328125 -0.140625 L 9.4375 -0.140625 L 9.4375 0 L 5.328125 0 L 5.328125 -0.140625 L 5.4375 -0.140625 C 5.625 -0.140625 5.757812 -0.191406 5.84375 -0.296875 C 5.925781 -0.410156 5.96875 -0.515625 5.96875 -0.609375 C 5.96875 -0.703125 5.945312 -0.800781 5.90625 -0.90625 L 5.359375 -2.203125 L 2.390625 -2.203125 L 1.828125 -0.890625 C 1.796875 -0.796875 1.78125 -0.703125 1.78125 -0.609375 C 1.78125 -0.515625 1.820312 -0.410156 1.90625 -0.296875 C 2 -0.191406 2.140625 -0.140625 2.328125 -0.140625 L 2.4375 -0.140625 L 2.4375 0 L -0.359375 0 L -0.359375 -0.140625 L -0.25 -0.140625 C -0.0507812 -0.140625 0.140625 -0.195312 0.328125 -0.3125 C 0.523438 -0.4375 0.6875 -0.625 0.8125 -0.875 L 3.71875 -7.078125 C 4.125 -8.003906 4.335938 -8.578125 4.359375 -8.796875 L 4.484375 -8.796875 L 8.234375 -0.921875 C 8.359375 -0.648438 8.519531 -0.453125 8.71875 -0.328125 C 8.914062 -0.203125 9.117188 -0.140625 9.328125 -0.140625 Z M 2.640625 -2.75 L 5.125 -2.75 L 3.890625 -5.671875 Z M 2.640625 -2.75 "/></g></g><g style="fill:#ffffff;fill-opacity:1;"><g transform="translate(303.524056, 150.318492)"><path style="stroke:none" d="M 6.6875 -8.40625 L 10.625 -8.40625 L 10.625 -8.265625 L 10.390625 -8.265625 C 10.171875 -8.265625 9.988281 -8.195312 9.84375 -8.0625 C 9.695312 -7.9375 9.625 -7.769531 9.625 -7.5625 L 9.625 -1.4375 C 9.625 -0.863281 9.660156 -0.390625 9.734375 -0.015625 L 9.765625 0.1875 L 9.625 0.1875 L 3.203125 -5.484375 L 3.203125 -0.859375 C 3.210938 -0.648438 3.289062 -0.476562 3.4375 -0.34375 C 3.582031 -0.207031 3.757812 -0.140625 3.96875 -0.140625 L 4.21875 -0.140625 L 4.21875 0 L 0.296875 0 L 0.296875 -0.140625 L 0.515625 -0.140625 C 0.734375 -0.140625 0.914062 -0.207031 1.0625 -0.34375 C 1.207031 -0.476562 1.28125 -0.648438 1.28125 -0.859375 L 1.28125 -7.015625 C 1.28125 -7.578125 1.242188 -8.039062 1.171875 -8.40625 L 1.140625 -8.59375 L 1.28125 -8.578125 L 7.6875 -2.9375 L 7.6875 -7.546875 C 7.6875 -7.753906 7.613281 -7.925781 7.46875 -8.0625 C 7.320312 -8.195312 7.144531 -8.265625 6.9375 -8.265625 L 6.6875 -8.265625 Z M 6.6875 -8.40625 "/></g></g><g style="fill:#ffffff;fill-opacity:1;"><g transform="translate(318.147967, 150.318492)"><path style="stroke:none" d="M 5.515625 0.1875 C 3.941406 0.175781 2.707031 -0.210938 1.8125 -0.984375 C 0.914062 -1.753906 0.46875 -2.828125 0.46875 -4.203125 C 0.46875 -5.578125 0.914062 -6.648438 1.8125 -7.421875 C 2.707031 -8.191406 3.941406 -8.578125 5.515625 -8.578125 C 6.742188 -8.578125 7.796875 -8.363281 8.671875 -7.9375 L 8.671875 -5.71875 L 8.5625 -5.71875 C 8.332031 -6.539062 7.972656 -7.128906 7.484375 -7.484375 C 7.003906 -7.835938 6.394531 -8.015625 5.65625 -8.015625 C 4.664062 -8.015625 3.910156 -7.675781 3.390625 -7 C 2.867188 -6.320312 2.609375 -5.398438 2.609375 -4.234375 C 2.609375 -3.066406 2.863281 -2.132812 3.375 -1.4375 C 3.90625 -0.726562 4.628906 -0.375 5.546875 -0.375 C 6.203125 -0.375 6.742188 -0.476562 7.171875 -0.6875 C 7.609375 -0.894531 7.953125 -1.222656 8.203125 -1.671875 C 8.453125 -2.128906 8.640625 -2.742188 8.765625 -3.515625 L 8.859375 -3.515625 L 9.03125 -1.40625 C 8.738281 -0.925781 8.296875 -0.539062 7.703125 -0.25 C 7.109375 0.0390625 6.378906 0.1875 5.515625 0.1875 Z M 5.515625 0.1875 "/></g></g><g style="fill:#ffffff;fill-opacity:1;"><g transform="translate(331.414644, 150.318492)"><path style="stroke:none" d="M 9.375 -8.265625 L 9.203125 -8.265625 C 8.953125 -8.265625 8.71875 -8.195312 8.5 -8.0625 C 8.28125 -7.9375 8.101562 -7.773438 7.96875 -7.578125 L 5.46875 -3.734375 L 5.46875 -0.875 C 5.476562 -0.675781 5.554688 -0.503906 5.703125 -0.359375 C 5.859375 -0.210938 6.050781 -0.140625 6.28125 -0.140625 L 6.421875 -0.140625 L 6.421875 0 L 2.5 0 L 2.5 -0.140625 L 2.671875 -0.140625 C 2.890625 -0.140625 3.070312 -0.210938 3.21875 -0.359375 C 3.375 -0.503906 3.453125 -0.675781 3.453125 -0.875 L 3.453125 -3.734375 L 0.984375 -7.578125 C 0.847656 -7.773438 0.671875 -7.9375 0.453125 -8.0625 C 0.234375 -8.195312 0 -8.265625 -0.25 -8.265625 L -0.421875 -8.265625 L -0.421875 -8.40625 L 3.84375 -8.40625 L 3.84375 -8.265625 L 3.6875 -8.265625 C 3.507812 -8.265625 3.378906 -8.203125 3.296875 -8.078125 C 3.210938 -7.960938 3.171875 -7.863281 3.171875 -7.78125 C 3.171875 -7.707031 3.191406 -7.640625 3.234375 -7.578125 L 5.09375 -4.359375 L 6.984375 -7.578125 C 7.015625 -7.640625 7.03125 -7.707031 7.03125 -7.78125 C 7.03125 -7.863281 6.988281 -7.960938 6.90625 -8.078125 C 6.832031 -8.203125 6.707031 -8.265625 6.53125 -8.265625 L 6.390625 -8.265625 L 6.390625 -8.40625 L 9.375 -8.40625 Z M 9.375 -8.265625 "/></g></g><g style="fill:#ffffff;fill-opacity:1;"><g transform="translate(114.990129, 169.81849)"><path style="stroke:none" d="M 0.640625 -1.140625 C 0.640625 -1.753906 0.773438 -2.273438 1.046875 -2.703125 L 1.15625 -2.703125 C 1.144531 -2.640625 1.140625 -2.578125 1.140625 -2.515625 C 1.140625 -1.953125 1.34375 -1.453125 1.75 -1.015625 C 2.15625 -0.585938 2.722656 -0.375 3.453125 -0.375 C 3.972656 -0.375 4.375 -0.492188 4.65625 -0.734375 C 4.945312 -0.984375 5.09375 -1.253906 5.09375 -1.546875 C 5.09375 -1.847656 5.007812 -2.085938 4.84375 -2.265625 C 4.6875 -2.453125 4.421875 -2.664062 4.046875 -2.90625 L 2.0625 -4.171875 C 1.21875 -4.691406 0.796875 -5.363281 0.796875 -6.1875 C 0.796875 -6.269531 0.800781 -6.359375 0.8125 -6.453125 C 0.863281 -7.117188 1.117188 -7.640625 1.578125 -8.015625 C 2.035156 -8.390625 2.570312 -8.578125 3.1875 -8.578125 C 3.8125 -8.578125 4.472656 -8.535156 5.171875 -8.453125 L 5.921875 -8.453125 L 5.71875 -6.609375 L 5.59375 -6.609375 C 5.59375 -7.046875 5.441406 -7.390625 5.140625 -7.640625 C 4.835938 -7.890625 4.4375 -8.015625 3.9375 -8.015625 C 3.4375 -8.015625 3.039062 -7.910156 2.75 -7.703125 C 2.46875 -7.492188 2.328125 -7.21875 2.328125 -6.875 C 2.328125 -6.59375 2.46875 -6.347656 2.75 -6.140625 C 2.851562 -6.054688 3.015625 -5.953125 3.234375 -5.828125 L 5.453125 -4.453125 C 6.222656 -3.984375 6.609375 -3.335938 6.609375 -2.515625 C 6.609375 -1.648438 6.300781 -0.984375 5.6875 -0.515625 C 5.082031 -0.046875 4.289062 0.1875 3.3125 0.1875 C 2.71875 0.1875 2.191406 0.117188 1.734375 -0.015625 C 1.273438 -0.160156 0.941406 -0.34375 0.734375 -0.5625 C 0.671875 -0.726562 0.640625 -0.921875 0.640625 -1.140625 Z M 0.640625 -1.140625 "/></g></g><g style="fill:#ffffff;fill-opacity:1;"><g transform="translate(125.90611, 169.81849)"><path style="stroke:none" d="M 7.0625 0 L 0.46875 0 L 0.46875 -0.140625 L 0.640625 -0.140625 C 0.859375 -0.140625 1.039062 -0.207031 1.1875 -0.34375 C 1.332031 -0.488281 1.40625 -0.664062 1.40625 -0.875 L 1.40625 -7.53125 C 1.40625 -7.738281 1.332031 -7.910156 1.1875 -8.046875 C 1.039062 -8.191406 0.859375 -8.265625 0.640625 -8.265625 L 0.46875 -8.265625 L 0.46875 -8.40625 L 5.40625 -8.40625 C 5.65625 -8.40625 5.925781 -8.425781 6.21875 -8.46875 C 6.519531 -8.519531 6.734375 -8.566406 6.859375 -8.609375 L 6.859375 -6.390625 L 6.71875 -6.390625 L 6.71875 -6.515625 C 6.71875 -6.921875 6.601562 -7.238281 6.375 -7.46875 C 6.15625 -7.707031 5.847656 -7.832031 5.453125 -7.84375 L 3.4375 -7.84375 L 3.4375 -4.4375 L 5.03125 -4.4375 C 5.34375 -4.445312 5.597656 -4.550781 5.796875 -4.75 C 5.992188 -4.957031 6.09375 -5.222656 6.09375 -5.546875 L 6.09375 -5.640625 L 6.234375 -5.640625 L 6.234375 -2.671875 L 6.09375 -2.671875 L 6.09375 -2.765625 C 6.09375 -3.210938 5.925781 -3.53125 5.59375 -3.71875 C 5.425781 -3.820312 5.242188 -3.875 5.046875 -3.875 L 3.4375 -3.875 L 3.4375 -0.5625 L 5.109375 -0.5625 C 5.691406 -0.570312 6.1875 -0.75 6.59375 -1.09375 C 7 -1.445312 7.289062 -1.941406 7.46875 -2.578125 L 7.609375 -2.578125 Z M 7.0625 0 "/></g></g><g style="fill:#ffffff;fill-opacity:1;"><g transform="translate(137.507706, 169.81849)"><path style="stroke:none" d="M 3.96875 -7.828125 L 3.515625 -7.828125 L 3.515625 -0.875 C 3.515625 -0.65625 3.585938 -0.476562 3.734375 -0.34375 C 3.890625 -0.207031 4.066406 -0.140625 4.265625 -0.140625 L 4.421875 -0.140625 L 4.421875 0 L 0.578125 0 L 0.578125 -0.140625 L 0.734375 -0.140625 C 0.941406 -0.140625 1.117188 -0.207031 1.265625 -0.34375 C 1.410156 -0.488281 1.484375 -0.664062 1.484375 -0.875 L 1.484375 -7.53125 C 1.484375 -7.738281 1.410156 -7.910156 1.265625 -8.046875 C 1.117188 -8.191406 0.945312 -8.265625 0.75 -8.265625 L 0.578125 -8.265625 L 0.578125 -8.40625 L 4.875 -8.40625 C 5.707031 -8.40625 6.410156 -8.238281 6.984375 -7.90625 C 7.617188 -7.539062 7.9375 -6.941406 7.9375 -6.109375 C 7.9375 -5.566406 7.769531 -5.078125 7.4375 -4.640625 C 7.113281 -4.203125 6.628906 -3.9375 5.984375 -3.84375 C 6.242188 -3.757812 6.492188 -3.601562 6.734375 -3.375 C 6.984375 -3.144531 7.1875 -2.90625 7.34375 -2.65625 C 7.632812 -2.125 7.941406 -1.632812 8.265625 -1.1875 C 8.597656 -0.75 8.863281 -0.460938 9.0625 -0.328125 C 9.257812 -0.203125 9.503906 -0.140625 9.796875 -0.140625 L 9.796875 0 L 8.625 0 C 7.851562 0 7.257812 -0.09375 6.84375 -0.28125 C 6.425781 -0.46875 6.050781 -0.820312 5.71875 -1.34375 C 5.21875 -2.144531 4.90625 -2.78125 4.78125 -3.25 C 4.675781 -3.53125 4.546875 -3.738281 4.390625 -3.875 C 4.234375 -4.019531 4.085938 -4.097656 3.953125 -4.109375 L 3.953125 -4.234375 L 4.296875 -4.234375 C 5.085938 -4.234375 5.570312 -4.695312 5.75 -5.625 C 5.789062 -5.769531 5.8125 -5.890625 5.8125 -5.984375 C 5.8125 -6.085938 5.804688 -6.226562 5.796875 -6.40625 C 5.785156 -6.59375 5.722656 -6.800781 5.609375 -7.03125 C 5.503906 -7.257812 5.367188 -7.425781 5.203125 -7.53125 C 4.921875 -7.707031 4.625 -7.800781 4.3125 -7.8125 C 4.207031 -7.820312 4.09375 -7.828125 3.96875 -7.828125 Z M 3.96875 -7.828125 "/></g></g><g style="fill:#ffffff;fill-opacity:1;"><g transform="translate(150.424571, 169.81849)"><path style="stroke:none" d="M 9.328125 -8.265625 L 9.21875 -8.265625 C 9.019531 -8.265625 8.820312 -8.203125 8.625 -8.078125 C 8.425781 -7.960938 8.269531 -7.785156 8.15625 -7.546875 L 5.296875 -1.53125 C 4.878906 -0.632812 4.664062 -0.0625 4.65625 0.1875 L 4.53125 0.1875 L 0.796875 -7.515625 C 0.546875 -8.015625 0.191406 -8.265625 -0.265625 -8.265625 L -0.359375 -8.265625 L -0.359375 -8.40625 L 3.734375 -8.40625 L 3.734375 -8.28125 L 3.625 -8.28125 C 3.445312 -8.28125 3.3125 -8.21875 3.21875 -8.09375 C 3.132812 -7.976562 3.09375 -7.867188 3.09375 -7.765625 C 3.09375 -7.671875 3.113281 -7.570312 3.15625 -7.46875 L 5.109375 -2.921875 L 7.109375 -7.46875 C 7.160156 -7.582031 7.1875 -7.6875 7.1875 -7.78125 C 7.1875 -7.875 7.140625 -7.976562 7.046875 -8.09375 C 6.960938 -8.21875 6.832031 -8.28125 6.65625 -8.28125 L 6.546875 -8.28125 L 6.546875 -8.40625 L 9.328125 -8.40625 Z M 9.328125 -8.265625 "/></g></g><g style="fill:#ffffff;fill-opacity:1;"><g transform="translate(163.047598, 169.81849)"><path style="stroke:none" d="M 0.46875 -0.140625 L 0.640625 -0.140625 C 0.867188 -0.140625 1.0625 -0.210938 1.21875 -0.359375 C 1.375 -0.503906 1.453125 -0.675781 1.453125 -0.875 L 1.453125 -7.515625 C 1.453125 -7.722656 1.375 -7.898438 1.21875 -8.046875 C 1.0625 -8.191406 0.867188 -8.265625 0.640625 -8.265625 L 0.46875 -8.265625 L 0.46875 -8.40625 L 4.453125 -8.40625 L 4.453125 -8.265625 L 4.28125 -8.265625 C 4.070312 -8.265625 3.882812 -8.191406 3.71875 -8.046875 C 3.5625 -7.910156 3.476562 -7.738281 3.46875 -7.53125 L 3.46875 -0.875 C 3.476562 -0.664062 3.5625 -0.488281 3.71875 -0.34375 C 3.882812 -0.207031 4.070312 -0.140625 4.28125 -0.140625 L 4.453125 -0.140625 L 4.453125 0 L 0.46875 0 Z M 0.46875 -0.140625 "/></g></g><g style="fill:#ffffff;fill-opacity:1;"><g transform="translate(171.696847, 169.81849)"><path style="stroke:none" d="M 5.515625 0.1875 C 3.941406 0.175781 2.707031 -0.210938 1.8125 -0.984375 C 0.914062 -1.753906 0.46875 -2.828125 0.46875 -4.203125 C 0.46875 -5.578125 0.914062 -6.648438 1.8125 -7.421875 C 2.707031 -8.191406 3.941406 -8.578125 5.515625 -8.578125 C 6.742188 -8.578125 7.796875 -8.363281 8.671875 -7.9375 L 8.671875 -5.71875 L 8.5625 -5.71875 C 8.332031 -6.539062 7.972656 -7.128906 7.484375 -7.484375 C 7.003906 -7.835938 6.394531 -8.015625 5.65625 -8.015625 C 4.664062 -8.015625 3.910156 -7.675781 3.390625 -7 C 2.867188 -6.320312 2.609375 -5.398438 2.609375 -4.234375 C 2.609375 -3.066406 2.863281 -2.132812 3.375 -1.4375 C 3.90625 -0.726562 4.628906 -0.375 5.546875 -0.375 C 6.203125 -0.375 6.742188 -0.476562 7.171875 -0.6875 C 7.609375 -0.894531 7.953125 -1.222656 8.203125 -1.671875 C 8.453125 -2.128906 8.640625 -2.742188 8.765625 -3.515625 L 8.859375 -3.515625 L 9.03125 -1.40625 C 8.738281 -0.925781 8.296875 -0.539062 7.703125 -0.25 C 7.109375 0.0390625 6.378906 0.1875 5.515625 0.1875 Z M 5.515625 0.1875 "/></g></g><g style="fill:#ffffff;fill-opacity:1;"><g transform="translate(184.963525, 169.81849)"><path style="stroke:none" d="M 7.0625 0 L 0.46875 0 L 0.46875 -0.140625 L 0.640625 -0.140625 C 0.859375 -0.140625 1.039062 -0.207031 1.1875 -0.34375 C 1.332031 -0.488281 1.40625 -0.664062 1.40625 -0.875 L 1.40625 -7.53125 C 1.40625 -7.738281 1.332031 -7.910156 1.1875 -8.046875 C 1.039062 -8.191406 0.859375 -8.265625 0.640625 -8.265625 L 0.46875 -8.265625 L 0.46875 -8.40625 L 5.40625 -8.40625 C 5.65625 -8.40625 5.925781 -8.425781 6.21875 -8.46875 C 6.519531 -8.519531 6.734375 -8.566406 6.859375 -8.609375 L 6.859375 -6.390625 L 6.71875 -6.390625 L 6.71875 -6.515625 C 6.71875 -6.921875 6.601562 -7.238281 6.375 -7.46875 C 6.15625 -7.707031 5.847656 -7.832031 5.453125 -7.84375 L 3.4375 -7.84375 L 3.4375 -4.4375 L 5.03125 -4.4375 C 5.34375 -4.445312 5.597656 -4.550781 5.796875 -4.75 C 5.992188 -4.957031 6.09375 -5.222656 6.09375 -5.546875 L 6.09375 -5.640625 L 6.234375 -5.640625 L 6.234375 -2.671875 L 6.09375 -2.671875 L 6.09375 -2.765625 C 6.09375 -3.210938 5.925781 -3.53125 5.59375 -3.71875 C 5.425781 -3.820312 5.242188 -3.875 5.046875 -3.875 L 3.4375 -3.875 L 3.4375 -0.5625 L 5.109375 -0.5625 C 5.691406 -0.570312 6.1875 -0.75 6.59375 -1.09375 C 7 -1.445312 7.289062 -1.941406 7.46875 -2.578125 L 7.609375 -2.578125 Z M 7.0625 0 "/></g></g><g style="fill:#ffffff;fill-opacity:1;"><g transform="translate(196.565121, 169.81849)"><path style="stroke:none" d="M 0.640625 -1.140625 C 0.640625 -1.753906 0.773438 -2.273438 1.046875 -2.703125 L 1.15625 -2.703125 C 1.144531 -2.640625 1.140625 -2.578125 1.140625 -2.515625 C 1.140625 -1.953125 1.34375 -1.453125 1.75 -1.015625 C 2.15625 -0.585938 2.722656 -0.375 3.453125 -0.375 C 3.972656 -0.375 4.375 -0.492188 4.65625 -0.734375 C 4.945312 -0.984375 5.09375 -1.253906 5.09375 -1.546875 C 5.09375 -1.847656 5.007812 -2.085938 4.84375 -2.265625 C 4.6875 -2.453125 4.421875 -2.664062 4.046875 -2.90625 L 2.0625 -4.171875 C 1.21875 -4.691406 0.796875 -5.363281 0.796875 -6.1875 C 0.796875 -6.269531 0.800781 -6.359375 0.8125 -6.453125 C 0.863281 -7.117188 1.117188 -7.640625 1.578125 -8.015625 C 2.035156 -8.390625 2.570312 -8.578125 3.1875 -8.578125 C 3.8125 -8.578125 4.472656 -8.535156 5.171875 -8.453125 L 5.921875 -8.453125 L 5.71875 -6.609375 L 5.59375 -6.609375 C 5.59375 -7.046875 5.441406 -7.390625 5.140625 -7.640625 C 4.835938 -7.890625 4.4375 -8.015625 3.9375 -8.015625 C 3.4375 -8.015625 3.039062 -7.910156 2.75 -7.703125 C 2.46875 -7.492188 2.328125 -7.21875 2.328125 -6.875 C 2.328125 -6.59375 2.46875 -6.347656 2.75 -6.140625 C 2.851562 -6.054688 3.015625 -5.953125 3.234375 -5.828125 L 5.453125 -4.453125 C 6.222656 -3.984375 6.609375 -3.335938 6.609375 -2.515625 C 6.609375 -1.648438 6.300781 -0.984375 5.6875 -0.515625 C 5.082031 -0.046875 4.289062 0.1875 3.3125 0.1875 C 2.71875 0.1875 2.191406 0.117188 1.734375 -0.015625 C 1.273438 -0.160156 0.941406 -0.34375 0.734375 -0.5625 C 0.671875 -0.726562 0.640625 -0.921875 0.640625 -1.140625 Z M 0.640625 -1.140625 "/></g></g><g style="fill:#ffffff;fill-opacity:1;"><g transform="translate(207.486217, 169.81849)"><path style="stroke:none" d=""/></g></g><g style="fill:#ffffff;fill-opacity:1;"><g transform="translate(117.000147, 221.108119)"><path style="stroke:none" d="M 31.28125 -10.625 L 31.484375 -10.53125 L 28.78125 0 L 28.484375 1.109375 L 26.78125 0 L 0.75 0 L 0.75 -0.25 C 1.789062 -0.613281 2.6875 -1.375 3.4375 -2.53125 C 4.1875 -3.6875 4.5625 -5.050781 4.5625 -6.625 L 4.5625 -32.234375 C 4.5625 -33.140625 4.1875 -33.765625 3.4375 -34.109375 C 2.6875 -34.460938 1.789062 -34.707031 0.75 -34.84375 L 0.75 -35.09375 L 16.75 -35.09375 L 16.75 -34.84375 C 15.476562 -34.707031 14.441406 -34.460938 13.640625 -34.109375 C 12.835938 -33.765625 12.4375 -33.140625 12.4375 -32.234375 L 12.4375 -0.796875 L 14.546875 -0.796875 C 16.878906 -0.796875 18.835938 -1.019531 20.421875 -1.46875 C 22.015625 -1.925781 23.394531 -2.582031 24.5625 -3.4375 C 25.738281 -4.289062 26.84375 -5.316406 27.875 -6.515625 C 28.914062 -7.722656 30.050781 -9.09375 31.28125 -10.625 Z M 31.28125 -10.625 "/></g></g><g style="fill:#ffffff;fill-opacity:1;"><g transform="translate(159.523796, 221.108119)"><path style="stroke:none" d=""/></g></g><g style="fill:#ffd7a9;fill-opacity:1;"><g transform="translate(156.106624, 231.862226)"><path style="stroke:none" d="M 26.765625 -24.484375 C 26.828125 -22.472656 26.257812 -20.332031 25.0625 -18.0625 C 23.875 -15.789062 21.78125 -13.65625 18.78125 -11.65625 C 16.375 -10.050781 13.90625 -8.953125 11.375 -8.359375 C 8.851562 -7.765625 6.40625 -7.65625 4.03125 -8.03125 C 1.65625 -8.414062 -0.539062 -9.253906 -2.5625 -10.546875 C -4.59375 -11.835938 -6.316406 -13.550781 -7.734375 -15.6875 C -9.429688 -18.25 -10.394531 -20.832031 -10.625 -23.4375 C -10.863281 -26.039062 -10.535156 -28.550781 -9.640625 -30.96875 C -8.742188 -33.382812 -7.445312 -35.617188 -5.75 -37.671875 C -4.050781 -39.722656 -2.140625 -41.457031 -0.015625 -42.875 C 2.710938 -44.6875 5.234375 -45.734375 7.546875 -46.015625 C 9.867188 -46.296875 11.882812 -46.164062 13.59375 -45.625 L 12.84375 -32.765625 L 12.703125 -32.71875 C 12.234375 -34.5625 11.507812 -36.1875 10.53125 -37.59375 C 9.550781 -39.007812 8.398438 -40.109375 7.078125 -40.890625 C 5.753906 -41.679688 4.316406 -42.050781 2.765625 -42 C 1.210938 -41.945312 -0.347656 -41.398438 -1.921875 -40.359375 C -3.503906 -39.304688 -4.65625 -37.945312 -5.375 -36.28125 C -6.09375 -34.613281 -6.253906 -32.703125 -5.859375 -30.546875 C -5.460938 -28.390625 -4.394531 -26.003906 -2.65625 -23.390625 C -1.25 -21.285156 0.367188 -19.476562 2.203125 -17.96875 C 4.035156 -16.46875 5.988281 -15.347656 8.0625 -14.609375 C 10.144531 -13.878906 12.25 -13.613281 14.375 -13.8125 C 16.507812 -14.007812 18.578125 -14.769531 20.578125 -16.09375 C 22.078125 -17.09375 23.375 -18.316406 24.46875 -19.765625 C 25.570312 -21.210938 26.191406 -22.789062 26.328125 -24.5 Z M 26.765625 -24.484375 "/></g></g><g style="fill:#ffffff;fill-opacity:1;"><g transform="translate(175.076661, 221.108119)"><path style="stroke:none" d="M 17.90625 -21.515625 C 20.40625 -20.941406 22.445312 -20.21875 24.03125 -19.34375 C 25.625 -18.476562 26.847656 -17.523438 27.703125 -16.484375 C 28.554688 -15.453125 29.148438 -14.410156 29.484375 -13.359375 C 29.816406 -12.304688 29.984375 -11.296875 29.984375 -10.328125 C 29.984375 -8.222656 29.414062 -6.332031 28.28125 -4.65625 C 27.144531 -2.988281 25.515625 -1.675781 23.390625 -0.71875 C 21.265625 0.226562 18.734375 0.703125 15.796875 0.703125 C 12.722656 0.703125 10 0.242188 7.625 -0.671875 C 5.25 -1.597656 3.375 -2.710938 2 -4.015625 L 6.765625 -11.53125 C 6.628906 -9.789062 6.851562 -8.207031 7.4375 -6.78125 C 8.03125 -5.363281 8.867188 -4.15625 9.953125 -3.15625 C 11.035156 -2.15625 12.253906 -1.382812 13.609375 -0.84375 C 14.960938 -0.3125 16.328125 -0.046875 17.703125 -0.046875 C 19.171875 -0.046875 20.363281 -0.285156 21.28125 -0.765625 C 22.195312 -1.253906 22.898438 -1.863281 23.390625 -2.59375 C 23.878906 -3.332031 24.207031 -4.09375 24.375 -4.875 C 24.539062 -5.664062 24.625 -6.347656 24.625 -6.921875 C 24.625 -8.285156 24.28125 -9.378906 23.59375 -10.203125 C 22.90625 -11.023438 21.890625 -11.6875 20.546875 -12.1875 C 19.210938 -12.6875 17.546875 -13.171875 15.546875 -13.640625 C 12.265625 -14.410156 9.695312 -15.445312 7.84375 -16.75 C 5.988281 -18.050781 4.691406 -19.488281 3.953125 -21.0625 C 3.222656 -22.632812 2.859375 -24.15625 2.859375 -25.625 C 2.859375 -27.757812 3.425781 -29.578125 4.5625 -31.078125 C 5.695312 -32.585938 7.289062 -33.75 9.34375 -34.5625 C 11.40625 -35.382812 13.789062 -35.796875 16.5 -35.796875 C 19.4375 -35.796875 21.984375 -35.351562 24.140625 -34.46875 C 26.296875 -33.582031 28.039062 -32.503906 29.375 -31.234375 L 24.46875 -23.765625 C 24.695312 -25.503906 24.550781 -27.066406 24.03125 -28.453125 C 23.519531 -29.835938 22.738281 -31.023438 21.6875 -32.015625 C 20.632812 -33.003906 19.445312 -33.765625 18.125 -34.296875 C 16.800781 -34.828125 15.457031 -35.09375 14.09375 -35.09375 C 12.519531 -35.09375 11.3125 -34.765625 10.46875 -34.109375 C 9.632812 -33.460938 9.066406 -32.6875 8.765625 -31.78125 C 8.472656 -30.882812 8.328125 -30.019531 8.328125 -29.1875 C 8.328125 -27.507812 8.757812 -26.1875 9.625 -25.21875 C 10.5 -24.25 11.660156 -23.488281 13.109375 -22.9375 C 14.566406 -22.382812 16.164062 -21.910156 17.90625 -21.515625 Z M 17.90625 -21.515625 "/></g></g></g></svg>